<?xml version="1.0" ?><svg id="Layer_1" style="enable-background:new 0 0 48 48;" version="1.1" viewBox="0 0 48 48" xml:space="preserve" xmlns="http://www.w3.org/2000/svg" xmlns:xlink="http://www.w3.org/1999/xlink"><path d="M45,33V17c-2.209,0-4-1.791-4-4H7c0,2.209-1.791,4-4,4v16c2.209,0,4,1.791,4,4h34  C41,34.791,42.791,33,45,33z" style="fill:#FFB74D;"/><rect height="12" style="fill:#FFCC80;" width="23" x="12" y="19"/><path d="M39,37h-2c0-0.552,0.448-1,1-1S39,36.448,39,37z" style="fill:#BF8020;"/><circle cx="38" cy="34" r="1" style="fill:#BF8020;"/><circle cx="38" cy="31" r="1" style="fill:#BF8020;"/><circle cx="38" cy="28" r="1" style="fill:#BF8020;"/><circle cx="38" cy="25" r="1" style="fill:#BF8020;"/><circle cx="38" cy="22" r="1" style="fill:#BF8020;"/><circle cx="38" cy="19" r="1" style="fill:#BF8020;"/><circle cx="38" cy="16" r="1" style="fill:#BF8020;"/><path d="M39,13c0,0.552-0.448,1-1,1s-1-0.448-1-1H39z" style="fill:#BF8020;"/></svg>