<?xml version="1.0" ?><svg viewBox="0 0 24 24" xmlns="http://www.w3.org/2000/svg"><title/><g id="Steam"><g data-name="&lt;Group&gt;" id="_Group_"><circle cx="15.5" cy="9.5" data-name="&lt;Path&gt;" id="_Path_" r="2" style="fill:none;stroke:#fff;stroke-linecap:round;stroke-linejoin:round"/><path d="M6.68,18.5A2,2,0,1,0,8.26,15" data-name="&lt;Path&gt;" id="_Path_2" style="fill:none;stroke:#fff;stroke-linecap:round;stroke-linejoin:round"/><path d="M12,.5A11.5,11.5,0,0,0,.5,12c0,.17,0,.34,0,.51l4.84,2.2a3.4,3.4,0,0,1,3.46-1.1L11.55,10a4,4,0,0,1-.05-.54,4,4,0,1,1,4,4h0l-4,3.29c0,.07,0,.14,0,.22a3.49,3.49,0,0,1-6.95.53L1.17,15.83A11.5,11.5,0,1,0,12,.5Z" data-name="&lt;Path&gt;" id="_Path_3" style="fill:none;stroke:#fff;stroke-linecap:round;stroke-linejoin:round"/></g></g></svg>
