<?xml version="1.0" ?><!DOCTYPE svg  PUBLIC '-//W3C//DTD SVG 1.1//EN'  'http://www.w3.org/Graphics/SVG/1.1/DTD/svg11.dtd'><svg enable-background="new 0 0 48 48" id="Layer_1" version="1.1" viewBox="0 0 48 48" xml:space="preserve" xmlns="http://www.w3.org/2000/svg" xmlns:xlink="http://www.w3.org/1999/xlink"><g><g><polygon fill="#E8EAE9" points="31.3,0 31.3,5.1 26.4,5.1 26.4,0 21.6,0 21.6,5.1 16.7,5.1 16.7,0 11.8,0 11.8,8.5 36.2,8.5     36.2,0   "/><polygon fill="#CFD7E1" points="11.8,8.5 14.4,13 33.7,13 36.2,8.5   "/><polygon fill="#E8EAE9" points="33.7,13 14.4,13 11.8,41.9 36.2,41.9   "/><path d="M36.6,41.9H11.4c-3.3,0-6.1,2.7-6.1,6.1h37.2C42.6,44.7,39.9,41.9,36.6,41.9z" fill="#CFD7E1"/><path d="M24,20.8c-2.1,0-3.8,1.7-3.8,3.8v7.8h7.5v-7.8C27.8,22.5,26.1,20.8,24,20.8z" fill="#435B6C"/></g></g></svg>