<?xml version="1.0" ?><svg height="58px" version="1.1" viewBox="0 0 58 58" width="58px" xmlns="http://www.w3.org/2000/svg" xmlns:xlink="http://www.w3.org/1999/xlink"><title/><desc/><defs/><g fill="none" fill-rule="evenodd" id="Page-1" stroke="none" stroke-width="1"><g id="Icons" transform="translate(-1081.000000, -1290.000000)"><g id="89--Edit-Colours--(design,-graphic,-tool)" transform="translate(1081.000000, 1290.000000)"><polygon fill="#ECF0F1" id="Fill-420" points="29.0001 23 33.2421 24.758 35.0001 29 33.2421 33.242 29.0001 35 24.7581 33.242 23.0001 29 24.7581 24.758"/><path d="M31.1436,34.1123 L28.9996,35.0003 L26.8566,34.1123 L17.7836,55.7493 C21.2336,57.1973 25.0226,58.0003 28.9996,58.0003 C32.9776,58.0003 36.7666,57.1973 40.2166,55.7493 L31.1436,34.1123 Z" fill="#285680" id="Fill-421"/><path d="M34.1309,31.0986 L33.2419,33.2426 L31.0989,34.1306 L39.9829,55.8456 C43.4469,54.4306 46.6939,52.3186 49.5059,49.5056 C52.3179,46.6936 54.4309,43.4476 55.8459,39.9826 L34.1309,31.0986 Z" fill="#4482C3" id="Fill-422"/><path d="M55.7491,17.7832 L34.1121,26.8562 L35.0001,29.0002 L34.1121,31.1432 L55.7491,40.2172 C57.1971,36.7662 58.0001,32.9772 58.0001,29.0002 C58.0001,25.0222 57.1971,21.2332 55.7491,17.7832" fill="#26B99A" id="Fill-423"/><path d="M33.2422,24.7578 L34.1122,26.8568 L55.7492,17.7828 C52.8122,10.7878 47.2052,5.2018 40.2122,2.2648 L31.1432,23.8878 L33.2422,24.7578 Z" fill="#E64C3C" id="Fill-424"/><path d="M29.0001,23 L31.1441,23.888 L40.2171,2.251 C36.7671,0.802 32.9781,2.27373675e-13 29.0001,2.27373675e-13 C25.0221,2.27373675e-13 21.2331,0.802 17.7831,2.251 L26.8561,23.888 L29.0001,23 Z" fill="#F0C419" id="Fill-425"/><path d="M24.7579,24.7578 L26.8569,23.8878 L17.7879,2.2648 C10.7949,5.2018 5.1879,10.7878 2.2509,17.7828 L23.8879,26.8568 L24.7579,24.7578 Z" fill="#E57E25" id="Fill-426"/><path d="M23.0001,29 L23.8881,26.856 L2.2511,17.783 C0.8031,21.233 0.0001,25.022 0.0001,29 C0.0001,32.978 0.8031,36.767 2.2511,40.217 L23.8881,31.144 L23.0001,29 Z" fill="#D25627" id="Fill-427"/><path d="M24.7579,33.2422 L23.8879,31.1432 L2.2649,40.2122 C5.1999,47.2032 10.7829,52.8082 17.7739,55.7462 L17.7829,55.7492 L26.8569,34.1122 L24.7579,33.2422 Z" fill="#4482C3" id="Fill-428"/></g></g></g></svg>