<?xml version="1.0" encoding="utf-8"?>
<!-- Generated by IcoMoon.io -->
<!DOCTYPE svg PUBLIC "-//W3C//DTD SVG 1.1//EN" "http://www.w3.org/Graphics/SVG/1.1/DTD/svg11.dtd">
<svg version="1.1" xmlns="http://www.w3.org/2000/svg" xmlns:xlink="http://www.w3.org/1999/xlink" width="20" height="20" viewBox="0 0 20 20">
<path d="M17.5 16h-2c-0.276 0-0.5-0.224-0.5-0.5s0.224-0.5 0.5-0.5h2c0.276 0 0.5-0.224 0.5-0.5v-12c0-0.276-0.224-0.5-0.5-0.5h-16c-0.276 0-0.5 0.224-0.5 0.5v12c0 0.276 0.224 0.5 0.5 0.5h2c0.276 0 0.5 0.224 0.5 0.5s-0.224 0.5-0.5 0.5h-2c-0.827 0-1.5-0.673-1.5-1.5v-12c0-0.827 0.673-1.5 1.5-1.5h16c0.827 0 1.5 0.673 1.5 1.5v12c0 0.827-0.673 1.5-1.5 1.5z" fill="#fff"></path>
<path d="M9.5 19c-0.827 0-1.5-0.673-1.5-1.5s0.673-1.5 1.5-1.5c0.827 0 1.5 0.673 1.5 1.5s-0.673 1.5-1.5 1.5zM9.5 17c-0.276 0-0.5 0.224-0.5 0.5s0.224 0.5 0.5 0.5 0.5-0.224 0.5-0.5-0.224-0.5-0.5-0.5z" fill="#fff"></path>
<path d="M6.053 15.968c-0.086 0-0.174-0.022-0.254-0.070-0.238-0.14-0.317-0.447-0.176-0.685 0.391-0.662 0.949-1.216 1.612-1.603 0.685-0.399 1.468-0.61 2.264-0.61s1.58 0.211 2.264 0.61c0.664 0.387 1.221 0.942 1.612 1.603 0.141 0.238 0.062 0.544-0.176 0.685s-0.544 0.062-0.685-0.176c-0.628-1.062-1.783-1.722-3.016-1.722s-2.388 0.66-3.016 1.722c-0.093 0.158-0.26 0.246-0.431 0.246z" fill="#fff"></path>
<path d="M15.107 13.808c-0.152 0-0.302-0.069-0.401-0.2-1.241-1.657-3.139-2.608-5.206-2.608s-3.965 0.95-5.206 2.608c-0.166 0.221-0.479 0.266-0.7 0.1s-0.266-0.479-0.1-0.7c0.684-0.913 1.581-1.67 2.594-2.189 1.063-0.544 2.211-0.82 3.412-0.82s2.35 0.276 3.412 0.82c1.013 0.518 1.91 1.275 2.594 2.189 0.166 0.221 0.121 0.534-0.1 0.7-0.090 0.067-0.195 0.1-0.299 0.1z" fill="#fff"></path>
</svg>
