<?xml version="1.0" ?><!DOCTYPE svg  PUBLIC '-//W3C//DTD SVG 1.1//EN'  'http://www.w3.org/Graphics/SVG/1.1/DTD/svg11.dtd'><svg height="2048px" style="shape-rendering:geometricPrecision; text-rendering:geometricPrecision; image-rendering:optimizeQuality; fill-rule:evenodd; clip-rule:evenodd" viewBox="0 0 2048 2048" width="2048px" xml:space="preserve" xmlns="http://www.w3.org/2000/svg" xmlns:xlink="http://www.w3.org/1999/xlink"><defs><style type="text/css">
   <![CDATA[
    .fil0 {fill:none}
    .fil1 {fill:#BFBFBF}
    .fil2 {fill:#DADADA}
   ]]>
  </style></defs><g id="Layer_x0020_1"><rect class="fil0" height="2048" width="2048"/><rect class="fil0" height="1536" width="1536" x="255.999" y="255.999"/><g id="_263109752"><g><g><path class="fil1" d="M1322.81 1232.16c176.508,0 324.037,49.5248 360.331,115.686l0 63.3756c-36.2941,66.1607 -183.823,115.686 -360.331,115.686 -176.724,0 -324.398,-49.6453 -360.463,-115.928l0 -62.8914c36.065,-66.2823 183.74,-115.928 360.463,-115.928z" id="_345268296"/><ellipse class="fil2" cx="1322.81" cy="1345.98" id="_345268152" rx="360.463" ry="144"/></g><g><path class="fil1" d="M1322.81 1152.78c176.508,0 324.037,49.5248 360.331,115.686l0 63.3756c-36.2941,66.1607 -183.823,115.686 -360.331,115.686 -176.724,0 -324.398,-49.6453 -360.463,-115.928l0 -62.8914c36.065,-66.2823 183.74,-115.928 360.463,-115.928z" id="_345267984"/><ellipse class="fil2" cx="1322.81" cy="1266.59" id="_345267840" rx="360.463" ry="144"/></g><g><path class="fil1" d="M1322.81 1073.4c176.508,0 324.037,49.5248 360.331,115.686l0 63.3756c-36.2941,66.1607 -183.823,115.686 -360.331,115.686 -176.724,0 -324.398,-49.6453 -360.463,-115.928l0 -62.8914c36.065,-66.2823 183.74,-115.928 360.463,-115.928z" id="_345267672"/><ellipse class="fil2" cx="1322.81" cy="1187.21" id="_345267528" rx="360.463" ry="144"/></g><g><path class="fil1" d="M1299.26 994.019c176.508,0 324.037,49.5248 360.331,115.686l0 63.3756c-36.2941,66.1607 -183.823,115.686 -360.331,115.686 -176.724,0 -324.398,-49.6453 -360.463,-115.928l0 -62.8914c36.065,-66.2823 183.74,-115.928 360.463,-115.928z" id="_345267360"/><ellipse class="fil2" cx="1299.26" cy="1107.83" id="_345267216" rx="360.463" ry="144"/></g><g><path class="fil1" d="M1299.26 914.637c176.508,0 324.037,49.5248 360.331,115.686l0 63.3756c-36.2941,66.1607 -183.823,115.686 -360.331,115.686 -176.724,0 -324.398,-49.6453 -360.463,-115.928l0 -62.8914c36.065,-66.2823 183.74,-115.928 360.463,-115.928z" id="_345267048"/><ellipse class="fil2" cx="1299.26" cy="1028.45" id="_345266904" rx="360.463" ry="144"/></g><g><path class="fil1" d="M1322.81 835.255c176.508,0 324.037,49.5248 360.331,115.686l0 63.3756c-36.2941,66.1607 -183.823,115.686 -360.331,115.686 -176.724,0 -324.398,-49.6453 -360.463,-115.928l0 -62.8914c36.065,-66.2823 183.74,-115.928 360.463,-115.928z" id="_345266736"/><ellipse class="fil2" cx="1322.81" cy="949.066" id="_345266592" rx="360.463" ry="144"/></g><g><path class="fil1" d="M1322.81 767.264c176.508,0 324.037,49.5248 360.331,115.686l0 63.3756c-36.2941,66.1607 -183.823,115.686 -360.331,115.686 -176.724,0 -324.398,-49.6453 -360.463,-115.928l0 -62.8914c36.065,-66.2823 183.74,-115.928 360.463,-115.928z" id="_345266424"/><ellipse class="fil2" cx="1322.81" cy="881.075" id="_345266280" rx="360.463" ry="144"/></g><g><path class="fil1" d="M1345.76 708.461c176.508,0 324.038,49.5248 360.331,115.686l0 63.3756c-36.2929,66.1607 -183.823,115.686 -360.331,115.686 -176.724,0 -324.397,-49.6453 -360.463,-115.928l0 -62.8914c36.0662,-66.2823 183.74,-115.928 360.463,-115.928z" id="_345266112"/><ellipse class="fil2" cx="1345.76" cy="822.272" id="_345265968" rx="360.463" ry="144"/></g><g><path class="fil1" d="M1345.76 648.604c176.508,0 324.038,49.5248 360.331,115.686l0 63.3756c-36.2929,66.1607 -183.823,115.686 -360.331,115.686 -176.724,0 -324.397,-49.6453 -360.463,-115.928l0 -62.8914c36.0662,-66.2823 183.74,-115.928 360.463,-115.928z" id="_345265800"/><ellipse class="fil2" cx="1345.76" cy="762.415" id="_345265656" rx="360.463" ry="144"/></g><g><path class="fil1" d="M1322.81 594.58c176.508,0 324.037,49.5248 360.331,115.686l0 63.3756c-36.2941,66.1607 -183.823,115.686 -360.331,115.686 -176.724,0 -324.398,-49.6453 -360.463,-115.928l0 -62.8914c36.065,-66.2823 183.74,-115.928 360.463,-115.928z" id="_345265488"/><ellipse class="fil2" cx="1322.81" cy="708.391" id="_345265344" rx="360.463" ry="144"/></g><path class="fil1" d="M1322.81 534.121c176.508,0 324.037,49.5248 360.331,115.686l0 63.3756c-36.2941,66.1607 -183.823,115.686 -360.331,115.686 -176.724,0 -324.398,-49.6453 -360.463,-115.928l0 -62.8914c36.065,-66.2823 183.74,-115.928 360.463,-115.928z" id="_345265200"/><ellipse class="fil2" cx="1322.81" cy="647.932" id="_345265104" rx="360.463" ry="144"/><ellipse class="fil1" cx="1322.81" cy="647.932" id="_345265008" rx="235.357" ry="94.0217"/><path class="fil2" d="M1378.5 676.739c8.3504,-3.26811 13.5437,-7.32402 15.6638,-12.1701 2.07756,-4.74804 0.796064,-9.32127 -3.66851,-13.6996 -3.9567,-3.87992 -9.55985,-6.64371 -16.8697,-8.40355 -7.26615,-1.74921 -16.9193,-2.25236 -29.0599,-1.44803 10.8614,11.3976 22.1575,23.2937 33.9343,35.7213zm-108.923 -83.9516c-6.34725,2.0126 -10.6382,4.53189 -12.9591,7.5815 -2.35984,3.09921 -2.19449,6.19843 0.312992,9.19253 2.31851,2.76851 6.53504,5.04804 12.6461,6.76064 6.17363,1.73268 14.048,2.62441 23.4603,2.68937 -8.08583,-9.04725 -15.8811,-17.8051 -23.4603,-26.224zm79.9855 89.6989c-12.2858,-13.8437 -23.9906,-27.013 -35.2146,-39.6012 -13.9984,0.933072 -26.9835,1.11378 -38.6646,0.530315 -11.8252,-0.590552 -22.3276,-1.97599 -31.3512,-4.16811 -17.9339,-4.35945 -30.4276,-11.2476 -37.0713,-20.4614 -6.46063,-8.95985 -4.7126,-17.3587 4.85079,-25.0169 4.62638,-3.7063 10.7138,-6.87993 18.1252,-9.56221 7.26142,-2.62795 15.8811,-4.82953 25.728,-6.56812 -1.97835,-2.20512 -3.93307,-4.41024 -5.88898,-6.60001 8.35158,-1.04646 16.5815,-2.07638 24.7146,-3.10748 2.02795,2.15788 4.05473,4.28268 6.13111,6.42402 18.3425,-1.49764 34.2,-1.01339 48.0048,1.4315 13.7303,2.43189 25.4386,6.69804 35.2618,12.8634 -12.1878,2.81811 -24.763,5.71418 -37.7481,8.70946 -8.10946,-5.15197 -18.4146,-7.84016 -31.278,-8.12953 8.83229,9.22324 18.0036,18.8351 27.561,28.8484 15.5433,-0.885827 28.865,-1.05709 40.1138,-0.612993 11.1236,0.440552 20.341,1.5378 27.7547,3.25158 14.863,3.43701 27.0236,9.34253 36.613,17.9504 11.0693,9.93662 14.9421,20.1189 11.1756,30.6024 -1.97599,5.50158 -5.99056,10.7516 -12.2374,15.6803 -6.42166,5.06693 -15.1571,9.85158 -26.3067,14.3268 6.32245,6.71339 12.7665,13.5378 19.3559,20.5087 -9.29174,2.9941 -18.802,6.03662 -28.5272,9.12757 -6.30119,-7.09961 -12.4547,-14.0705 -18.5126,-20.928 -12.4051,2.6563 -24.7134,4.1563 -36.7335,4.5567 -12.1618,0.403937 -23.9386,-0.381496 -35.2134,-2.31851 -22.6347,-3.88937 -41.6339,-12.7169 -56.5489,-26.0788 19.115,-5.58662 37.4575,-10.9465 55.0512,-16.0984 6.51733,4.74922 14.5358,8.36457 23.7992,10.8189 9.27048,2.45433 18.3177,3.66969 27.0555,3.62126z" id="_345264768"/></g><g><path class="fil1" d="M702.239 1249.32c176.508,0 324.037,49.5248 360.331,115.686l0 63.3756c-36.2941,66.1607 -183.823,115.686 -360.331,115.686 -176.724,0 -324.398,-49.6453 -360.463,-115.928l0 -62.8914c36.065,-66.2823 183.74,-115.928 360.463,-115.928z" id="_345264600"/><ellipse class="fil2" cx="702.239" cy="1363.13" id="_345264456" rx="360.463" ry="144"/></g><g><path class="fil1" d="M702.239 1181.33c176.508,0 324.037,49.5248 360.331,115.686l0 63.3756c-36.2941,66.1607 -183.823,115.686 -360.331,115.686 -176.724,0 -324.398,-49.6453 -360.463,-115.928l0 -62.8914c36.065,-66.2823 183.74,-115.928 360.463,-115.928z" id="_345264288"/><ellipse class="fil2" cx="702.239" cy="1295.14" id="_345264144" rx="360.463" ry="144"/></g><g><path class="fil1" d="M725.187 1122.53c176.508,0 324.038,49.5248 360.331,115.686l0 63.3756c-36.2929,66.1607 -183.823,115.686 -360.331,115.686 -176.724,0 -324.397,-49.6453 -360.463,-115.928l0 -62.8914c36.0662,-66.2823 183.74,-115.928 360.463,-115.928z" id="_345263976"/><ellipse class="fil2" cx="725.187" cy="1236.34" id="_345263928" rx="360.463" ry="144"/></g><g><path class="fil1" d="M725.187 1062.67c176.508,0 324.038,49.5248 360.331,115.686l0 63.3756c-36.2929,66.1607 -183.823,115.686 -360.331,115.686 -176.724,0 -324.397,-49.6453 -360.463,-115.928l0 -62.8914c36.0662,-66.2823 183.74,-115.928 360.463,-115.928z" id="_263110760"/><ellipse class="fil2" cx="725.187" cy="1176.48" id="_263110616" rx="360.463" ry="144"/></g><g><path class="fil1" d="M702.239 1008.65c176.508,0 324.037,49.5248 360.331,115.686l0 63.3756c-36.2941,66.1607 -183.823,115.686 -360.331,115.686 -176.724,0 -324.398,-49.6453 -360.463,-115.928l0 -62.8914c36.065,-66.2823 183.74,-115.928 360.463,-115.928z" id="_263110448"/><ellipse class="fil2" cx="702.239" cy="1122.46" id="_263110304" rx="360.463" ry="144"/></g><path class="fil1" d="M702.239 948.187c176.508,0 324.037,49.5248 360.331,115.686l0 63.3756c-36.2941,66.1607 -183.823,115.686 -360.331,115.686 -176.724,0 -324.398,-49.6453 -360.463,-115.928l0 -62.8914c36.065,-66.2823 183.74,-115.928 360.463,-115.928z" id="_263110160"/><ellipse class="fil2" cx="702.239" cy="1062" id="_263110064" rx="360.463" ry="144"/><ellipse class="fil1" cx="702.239" cy="1062" id="_263109968" rx="235.357" ry="94.0217"/><path class="fil2" d="M757.927 1090.81c8.3504,-3.26811 13.5437,-7.32402 15.6638,-12.1701 2.07756,-4.74804 0.796064,-9.32127 -3.66851,-13.6996 -3.9567,-3.87992 -9.55985,-6.64371 -16.8697,-8.40355 -7.26615,-1.74921 -16.9193,-2.25236 -29.0599,-1.44803 10.8614,11.3976 22.1575,23.2937 33.9343,35.7213zm-108.923 -83.9516c-6.34725,2.0126 -10.6382,4.53189 -12.9591,7.5815 -2.35984,3.09921 -2.19449,6.19843 0.312992,9.19253 2.31851,2.76851 6.53504,5.04804 12.6461,6.76064 6.17363,1.73268 14.048,2.62441 23.4603,2.68937 -8.08583,-9.04725 -15.8811,-17.8051 -23.4603,-26.224zm79.9855 89.6989c-12.2858,-13.8437 -23.9906,-27.013 -35.2146,-39.6012 -13.9984,0.933072 -26.9835,1.11378 -38.6646,0.530315 -11.8252,-0.590552 -22.3276,-1.97599 -31.3512,-4.16811 -17.9339,-4.35945 -30.4276,-11.2476 -37.0713,-20.4614 -6.46063,-8.95985 -4.7126,-17.3587 4.85079,-25.0169 4.62638,-3.7063 10.7138,-6.87993 18.1252,-9.56221 7.26142,-2.62795 15.8811,-4.82953 25.728,-6.56812 -1.97835,-2.20512 -3.93307,-4.41024 -5.88898,-6.60001 8.35158,-1.04646 16.5815,-2.07638 24.7146,-3.10748 2.02795,2.15788 4.05473,4.28268 6.13111,6.42402 18.3425,-1.49764 34.2,-1.01339 48.0048,1.4315 13.7303,2.43189 25.4386,6.69804 35.2618,12.8634 -12.1878,2.81811 -24.763,5.71418 -37.7481,8.70946 -8.10946,-5.15197 -18.4146,-7.84016 -31.278,-8.12953 8.83229,9.22324 18.0036,18.8351 27.561,28.8484 15.5433,-0.885827 28.865,-1.05709 40.1138,-0.612993 11.1236,0.440552 20.341,1.5378 27.7547,3.25158 14.863,3.43701 27.0236,9.34253 36.613,17.9504 11.0693,9.93662 14.9421,20.1189 11.1756,30.6024 -1.97599,5.50158 -5.99056,10.7516 -12.2374,15.6803 -6.42166,5.06693 -15.1571,9.85158 -26.3067,14.3268 6.32245,6.71339 12.7665,13.5378 19.3559,20.5087 -9.29174,2.9941 -18.802,6.03662 -28.5272,9.12757 -6.30119,-7.09961 -12.4547,-14.0705 -18.5126,-20.928 -12.4051,2.6563 -24.7134,4.1563 -36.7335,4.5567 -12.1618,0.403937 -23.9386,-0.381496 -35.2134,-2.31851 -22.6347,-3.88937 -41.6339,-12.7169 -56.5489,-26.0788 19.115,-5.58662 37.4575,-10.9465 55.0512,-16.0984 6.51733,4.74922 14.5358,8.36457 23.7992,10.8189 9.27048,2.45433 18.3177,3.66969 27.0555,3.62126z" id="_263109824"/></g></g></svg>