<?xml version="1.0" ?><!DOCTYPE svg  PUBLIC '-//W3C//DTD SVG 1.1//EN'  'http://www.w3.org/Graphics/SVG/1.1/DTD/svg11.dtd'><svg enable-background="new 0 0 65 65" id="Layer_1" version="1.1" viewBox="0 0 65 65" xml:space="preserve" xmlns="http://www.w3.org/2000/svg" xmlns:xlink="http://www.w3.org/1999/xlink"><g><circle cx="32.5" cy="32.5" fill="#FCD66F" r="32"/><circle cx="32.5" cy="32.5" fill="#E6AC43" r="26.2"/><circle cx="32.5" cy="32.5" fill="#FCD66F" r="21.4"/><path d="M32.5,30.3c-2,0-3.6-1.6-3.6-3.6c0-2,1.6-3.6,3.6-3.6c2,0,3.6,1.6,3.6,3.6c0,1.2,1,2.2,2.2,2.2   c1.2,0,2.2-1,2.2-2.2c0-3.7-2.5-6.7-5.8-7.7v-3c0-1.2-1-2.2-2.2-2.2c-1.2,0-2.2,1-2.2,2.2v3c-3.3,1-5.8,4-5.8,7.7c0,4.4,3.6,8,8,8   c2,0,3.6,1.6,3.6,3.6s-1.6,3.6-3.6,3.6c-2,0-3.6-1.6-3.6-3.6c0-1.2-1-2.2-2.2-2.2c-1.2,0-2.2,1-2.2,2.2c0,3.7,2.5,6.7,5.8,7.7v3   c0,1.2,1,2.2,2.2,2.2c1.2,0,2.2-1,2.2-2.2v-3c3.3-1,5.8-4,5.8-7.7C40.5,33.9,36.9,30.3,32.5,30.3z" fill="#E6AC43"/></g></svg>