<?xml version="1.0" ?><!DOCTYPE svg  PUBLIC '-//W3C//DTD SVG 1.0//EN'  'http://www.w3.org/TR/2001/REC-SVG-20010904/DTD/svg10.dtd'><svg enable-background="new 0 0 32 32" height="32px" id="Layer_1" version="1.0" viewBox="0 0 32 32" width="32px" xml:space="preserve" xmlns="http://www.w3.org/2000/svg" xmlns:xlink="http://www.w3.org/1999/xlink"><g><g><path d="M2,19.002c-0.553-0.001-0.999-0.447-0.999-1c0-0.554,0.446-1.001,1-1.001c0.276,0,0.5-0.224,0.5-0.5    s-0.224-0.5-0.5-0.5C0.896,16.001,0,16.896,0,18.002c0,1.104,0.896,2,2.001,2v-0.001H3.06c-0.035-0.33-0.06-0.662-0.06-1L2,19.002    L2,19.002z" fill="#EAEAEA"/><path d="M31,16.001h-2.502c0.002,0.005,0.003,0.01,0.004,0.014C26.963,11.393,21.955,8.001,16,8.001    c-7.18,0-13,4.925-13,11c0,3.52,1.961,6.645,5,8.658v3.342c0,0.553,0.447,1,1,1h2c0.553,0,1-0.447,1-1v-1.536    c1.261,0.345,2.604,0.536,4,0.536s2.739-0.191,4-0.536v1.536c0,0.553,0.447,1,1,1h2c0.553,0,1-0.447,1-1v-3.342    c2.145-1.42,3.743-3.395,4.502-5.672c-0.001,0.004-0.002,0.009-0.004,0.014H31c0.553,0,1-0.447,1-1v-4    C32,16.448,31.553,16.001,31,16.001z" fill="#EAEAEA"/></g><path d="M16,26.001c-4.8,0-9.169-1.525-12.504-4.02c1.537,4.625,6.547,8.02,12.504,8.02s10.967-3.395,12.504-8.02   C25.169,24.476,20.8,26.001,16,26.001z" opacity="0.1"/><circle cx="23" cy="15.001" fill="#434854" r="1"/><path d="M24.946,11.022l1.761-1.76c0.391-0.391,0.391-1.023,0-1.414c-1.163-1.164-3.051-1.192-4.242,0   c-0.154,0.154-0.752,0.739-1.136,1.12C22.672,9.479,23.892,10.177,24.946,11.022z" fill="#EAEAEA"/><path d="M24.946,11.022l1.761-1.76c0.391-0.391,0.391-1.023,0-1.414c-1.163-1.164-3.051-1.192-4.242,0   c-0.154,0.154-0.752,0.739-1.136,1.12C22.672,9.479,23.892,10.177,24.946,11.022z" opacity="0.1"/><path d="M21,10.501c0,0.276-0.224,0.5-0.5,0.5h-9c-0.276,0-0.5-0.224-0.5-0.5l0,0c0-0.276,0.224-0.5,0.5-0.5h9   C20.776,10.001,21,10.225,21,10.501L21,10.501z" fill="#434854"/><circle cx="16" cy="4.001" fill="#EACA44" r="4"/><path d="M16,0.001c-2.21,0-4,1.79-4,4s1.79,4,4,4s4-1.79,4-4S18.21,0.001,16,0.001z M16,7.001c-1.657,0-3-1.343-3-3   s1.343-3,3-3s3,1.343,3,3S17.657,7.001,16,7.001z" opacity="0.1"/></g><g/><g/><g/><g/><g/><g/></svg>