<?xml version="1.0" ?><!DOCTYPE svg  PUBLIC '-//W3C//DTD SVG 1.1//EN'  'http://www.w3.org/Graphics/SVG/1.1/DTD/svg11.dtd'><svg enable-background="new 0 0 512 512" height="512px" id="Layer_1" version="1.1" viewBox="0 0 512 512" width="512px" xml:space="preserve" xmlns="http://www.w3.org/2000/svg" xmlns:xlink="http://www.w3.org/1999/xlink"><g><path d="M144.393,59.861c15.88-8.616,34.934-2.266,43.1,13.146c8.167,15.42,2.266,34.926-13.16,43.089   c-58.066,30.379-94.367,90.241-94.367,155.991c0,97.053,78.948,175.95,176.034,175.95c97.095,0,176.026-78.897,176.026-175.95   c0-65.75-36.294-125.611-94.359-155.991c-15.427-8.163-21.318-27.669-13.161-43.089c8.176-15.412,27.682-21.763,43.108-13.146   C446.546,101.13,496,182.754,496,272.088C496,404.512,388.481,512,256,512C123.52,512,16,404.512,16,272.088   C16,182.754,65.454,101.13,144.393,59.861L144.393,59.861z M256,0c17.693,0,32.213,14.515,32.213,32.2v159.623   c0,17.693-14.52,32.2-32.213,32.2s-32.213-14.507-32.213-32.2L224.24,32.2C224.24,14.515,238.307,0,256,0L256,0z" fill="#fff"/></g></svg>
