<?xml version="1.0" ?><!DOCTYPE svg  PUBLIC '-//W3C//DTD SVG 1.1//EN'  'http://www.w3.org/Graphics/SVG/1.1/DTD/svg11.dtd'><svg enable-background="new -3.192 -2.497 1024 1024" height="1024px" version="1.1" viewBox="-3.192 -2.497 1024 1024" width="1024px" xml:space="preserve" xmlns="http://www.w3.org/2000/svg" xmlns:xlink="http://www.w3.org/1999/xlink"><defs/><g><g><path d="M706.647,145.858c18.401,10.54,36.039,22.323,52.825,35.281c-3.777-2.919-7.556-5.838-11.334-8.757    c30.359,23.59,57.649,50.897,81.22,81.271c-2.919-3.778-5.838-7.556-8.757-11.334c23.924,31.033,43.786,65.007,59.045,101.1    c-1.882-4.459-3.764-8.918-5.646-13.377c15.303,36.528,25.753,74.9,31.118,114.139c-0.667-4.962-1.333-9.925-2-14.887    c5.403,40.525,5.407,81.642-0.007,122.166c0.667-4.963,1.334-9.925,2.001-14.887c-5.367,39.264-15.837,77.674-31.167,114.22    c1.882-4.459,3.764-8.918,5.646-13.378c-15.258,36.075-35.127,70.04-59.052,101.051c2.919-3.778,5.838-7.556,8.757-11.334    c-23.59,30.394-50.916,57.721-81.311,81.31c3.778-2.918,7.557-5.837,11.334-8.756c-31.011,23.925-64.976,43.794-101.05,59.052    c4.459-1.882,8.918-3.764,13.377-5.646c-36.545,15.33-74.955,25.8-114.22,31.167c4.962-0.667,9.925-1.334,14.887-2.001    c-40.537,5.416-81.676,5.416-122.213,0c4.962,0.667,9.925,1.334,14.887,2.001c-39.265-5.367-77.675-15.837-114.22-31.167    c4.459,1.882,8.918,3.764,13.377,5.646c-36.074-15.258-70.04-35.127-101.05-59.052c3.778,2.919,7.556,5.838,11.333,8.756    c-30.394-23.589-57.72-50.916-81.31-81.31c2.919,3.778,5.837,7.556,8.756,11.334c-23.925-31.011-43.793-64.976-59.052-101.051    c1.882,4.46,3.764,8.919,5.646,13.378c-15.33-36.546-25.799-74.956-31.167-114.22c0.667,4.962,1.333,9.924,2,14.887    c-5.413-40.513-5.41-81.62-0.011-122.135c-0.667,4.962-1.333,9.924-2,14.887c5.36-39.218,15.8-77.573,31.088-114.086    c-1.882,4.459-3.764,8.918-5.646,13.377c15.244-36.078,35.087-70.04,58.988-101.065c-2.918,3.778-5.837,7.556-8.756,11.334    c23.843-30.747,51.498-58.353,82.286-82.143c-3.778,2.919-7.556,5.837-11.334,8.756c16.047-12.318,32.867-23.566,50.383-33.687    c26.389-15.247,35.456-50.388,20.09-76.619c-15.472-26.413-50.178-35.367-76.619-20.09    C167.387,102.212,92.08,183.397,49.5,278.936c-11.765,26.397-22.057,53.294-29.458,81.247c-7.55,28.516-12.005,57.88-14.82,87.214    c-4.965,51.736-0.549,104.544,10.508,155.25c10.374,47.572,28.765,94.004,52.465,136.477    c23.312,41.776,53.375,80.653,87.527,114.123c69.119,67.74,158.749,116.153,253.842,134.789    c49.925,9.784,101.185,13.078,151.809,7.566c27.145-2.956,54.12-7.283,80.54-14.224c25.94-6.814,50.692-16.464,75.331-26.972    c88.75-37.848,163.974-104.278,217.674-183.889c27.077-40.143,47.736-85.172,62.117-131.347    c14.887-47.801,22.096-98.796,22.172-148.818c0.164-107.121-34.569-215.529-99.268-301.127    c-21.211-28.062-44.014-54.355-70.4-77.686c-26.572-23.493-55.572-44.753-86.363-62.39c-26.497-15.177-61.104-6.396-76.619,20.09    C671.235,95.396,680.201,130.709,706.647,145.858L706.647,145.858z" fill="#fff"/></g></g><path d="M576.407,534.303c0,36.01-29.19,65.2-65.199,65.2l0,0c-36.009,0-65.2-29.19-65.2-65.2v-371.6  c0-36.009,29.191-65.2,65.2-65.2l0,0c36.009,0,65.199,29.191,65.199,65.2V534.303z" fill="#fff"/></svg>
