<?xml version="1.0" ?><svg enable-background="new 0 0 64 64" height="64px" id="Layer_1" version="1.1" viewBox="0 0 64 64" width="64px" xml:space="preserve" xmlns="http://www.w3.org/2000/svg" xmlns:xlink="http://www.w3.org/1999/xlink"><path d="M12,54h8V38h8v16h24V30H12V54z" fill="#E3E5E5"/><polygon fill="#A2A097" points="12,30 12,34 32,54 52,54 52,30 "/><rect fill="#7AA3D6" height="16" width="12" x="16" y="38"/><polygon fill="#3569B2" points="16,38 28,50 28,38 "/><rect fill="#3569B2" height="12" width="16" x="32" y="38"/><rect fill="#D84234" height="4" width="40" x="12" y="10"/><polygon fill="#4981C3" points="32,38 32,42 40,50 48,50 44,46 36,38 "/><polygon fill="#D84234" points="20,16 12,16 8,30 17.6,30 "/><polygon fill="#FFFFFF" points="28,16 20,16 17.6,30 27.2,30 "/><polygon fill="#D84234" points="36,16 28,16 27.2,30 36.8,30 "/><polygon fill="#FFFFFF" points="44,16 36,16 36.8,30 46.4,30 "/><polygon fill="#D84234" points="52,16 44,16 46.4,30 56,30 "/><path d="M17.6,32c0,2.6-2.2,4.8-4.8,4.8S8,34.6,8,32v-2h9.6V32z" fill="#AE362B"/><path d="M36.8,32c0,2.6-2.2,4.8-4.8,4.8s-4.8-2.2-4.8-4.8v-2h9.6L36.8,32z" fill="#AE362B"/><path d="M56,32c0,2.6-2.2,4.8-4.8,4.8s-4.8-2.2-4.8-4.8v-2H56V32z" fill="#AE362B"/><path d="M27.2,32c0,2.6-2.2,4.8-4.8,4.8s-4.8-2.2-4.8-4.8v-2h9.6V32z" fill="#CDCCCC"/><path d="M46.4,32c0,2.6-2.2,4.8-4.8,4.8s-4.8-2.2-4.8-4.8v-2h9.6V32z" fill="#CDCCCC"/><rect fill="#FFFFFF" height="2" width="40" x="12" y="14"/></svg>