<?xml version="1.0" encoding="UTF-8" standalone="no"?>
<svg width="128px" height="128px" viewBox="0 0 128 128" version="1.1" xmlns="http://www.w3.org/2000/svg" xmlns:xlink="http://www.w3.org/1999/xlink">
    <!-- Generator: Sketch 45.2 (43514) - http://www.bohemiancoding.com/sketch -->
    <title>Token</title>
    <desc>Created with Sketch.</desc>
    <defs>
        <path d="M36.9926444,122.039301 C15.1434382,111.85492 0,89.6959299 0,64 C0,28.653776 28.653776,0 64,0 C99.346224,0 128,28.653776 128,64 C128,88.6126384 114.106484,109.980272 93.7343317,120.688023 C95.3472205,109.371422 96.1855259,103.80581 96.2492478,103.99119 C96.951867,101.927385 97.6239376,99.0439822 97.8785097,96.980177 C97.9599728,96.2790757 98.0821675,95.2619851 98.1534477,94.7386278 C98.2960081,93.5536678 98.214545,90.6998894 97.9701557,88.7644548 C97.8785097,87.9942308 97.766498,87.3227536 97.7359493,87.2635056 C97.6952178,87.1943829 97.135159,87.3326282 96.147419,87.6486175 C94.3654138,88.2114735 92.0742643,88.8335775 91.7585948,88.8335775 C91.6364002,88.8335775 91.1068901,88.6360841 90.5875628,88.3990922 C90.0580527,88.1621002 89.4368966,87.9053589 89.2026902,87.8362362 C88.958301,87.7671135 88.7648261,87.6881162 88.7648261,87.6584922 C88.7648261,87.6288682 89.3757993,87.4412495 90.11915,87.2536309 C90.8523179,87.0660122 92.725969,86.4932816 94.2635849,85.9896736 C95.8012008,85.4860657 97.2064392,85.0417057 97.3693654,84.9923324 C98.3571054,84.735591 101.503617,83.0272738 103.662389,81.5756979 C106.340489,79.7785087 107.623532,78.4355541 108.733467,76.2828769 C109.385172,75.0189196 109.588829,74.179573 109.588829,72.6884984 C109.588829,71.2072985 109.395355,70.3975759 108.723284,69.034872 C107.002376,65.5392402 101.961847,61.9053631 95.6484575,59.6045659 C94.3552309,59.1404566 91.9113381,58.3998566 91.8400579,58.4689793 C91.8196921,58.478854 91.9724354,59.5156939 92.1659103,60.7500272 C92.7361519,64.3740296 93.1841989,68.383144 93.3878567,71.7997785 L93.4387711,72.5897518 L93.1536503,71.5035385 C92.9907241,70.9110585 92.5121284,68.9953733 92.0946301,67.2574321 C91.6669488,65.5194909 91.1068901,63.238443 90.842135,62.1818537 C90.11915,59.2490779 86.6671514,45.87878 86.616237,45.8392814 C86.5958712,45.8195321 85.3841077,45.8491561 83.9279549,45.8886547 C76.1482295,46.145396 53.4200263,46.145396 44.82567,45.8985294 C43.3695172,45.8491561 42.1679365,45.8195321 42.1577536,45.8294067 C42.1068392,45.8392814 39.8055068,55.1313422 39.2148994,57.6691313 C38.8483155,59.2392032 38.5428289,60.5525338 38.5122802,60.5821578 C38.4919144,60.6216565 38.2678909,61.6683711 38.0031359,62.912579 C37.7383808,64.1666616 37.4634429,65.4404935 37.3819798,65.7466082 C37.3005167,66.0527228 37.1681392,66.6550775 37.0866761,67.0796881 C37.0153958,67.5042987 36.6691777,69.1434933 36.3229596,70.7135652 L35.7018035,73.5772184 L35.7629008,72.1552665 C35.8749125,69.331112 36.3840569,64.0580403 36.8728354,60.4932858 C37.005213,59.5453179 37.0968589,58.7454699 37.0764932,58.7158459 C37.005213,58.6467233 34.5307715,59.4564459 32.7589492,60.1279232 C30.9973098,60.7895258 27.9628096,62.2411017 26.6492172,63.060699 C23.2175844,65.1738776 20.8653375,67.5339227 19.9285119,69.8149706 C17.8308373,74.890549 21.2522872,79.9365033 29.4902426,83.9456178 C31.6693803,85.002207 35.3759511,86.3254123 38.8483155,87.2832549 L40.4062971,87.7177402 L39.9175186,87.8954842 C39.6527635,87.9942308 39.0112416,88.2707215 38.5020973,88.5175882 L37.5652717,88.9619481 L35.7527179,88.5472121 C34.7446121,88.3200948 33.3393737,87.9744815 32.6163888,87.7868629 C31.8934038,87.5992442 31.2824306,87.4609989 31.2620649,87.4906229 C31.06859,87.6683669 30.7834692,91.7861026 30.8547494,93.4252972 C30.9871269,96.891305 31.6591974,100.525182 32.7385834,103.69495 C32.9101495,104.194069 35.2078787,116.154752 36.9926444,122.039301 Z M56.2305031,101.799014 C56.4036121,101.344779 56.6989159,99.6463368 56.7498303,98.7576169 L56.8109276,97.7701503 L56.2712346,97.5035343 C55.965748,97.3455396 55.2427631,96.8221823 54.6521556,96.328449 C51.9944222,94.1066491 50.2633315,92.8821906 48.1860226,91.776228 C45.721764,90.4628974 44.5710978,90.1074094 42.2493996,89.9000414 L40.8848928,89.7815454 L40.2433709,90.1074094 C39.0010588,90.7295134 38.0133187,92.0527186 37.5347231,93.7412865 C37.3310653,94.4522625 37.1172247,96.9604276 37.2190536,97.4640356 C37.2801509,97.7701503 40.2026394,99.0637315 42.7381782,99.9030781 C45.4162774,100.801673 48.1962055,101.413902 50.8844875,101.710142 C52.8090531,101.927385 52.8905162,101.927385 54.6114241,101.947134 C55.9962967,101.966883 56.1694058,101.947134 56.2305031,101.799014 Z M78.2255384,101.729891 C76.6675567,101.91751 73.0322661,102.036006 72.9508031,101.897761 C72.7573282,101.601521 72.4518416,100.011699 72.4009272,99.0439822 L72.3398298,97.9577689 L72.7573282,97.8392729 C73.3377527,97.6714036 74.0811035,97.1480463 75.6085365,95.8643397 C78.0626122,93.7906598 79.875166,92.5859506 82.4718021,91.331868 C84.2028929,90.4826467 85.2619131,90.1864067 87.15593,90.0086627 L88.418608,89.8901667 L89.0499469,90.1666574 C89.8136634,90.502396 90.3126249,91.006004 90.7097575,91.8552253 C91.3003649,93.1191825 91.7789606,95.1533638 91.829875,96.6345637 C91.8706066,97.7405263 91.9418868,97.6417796 90.6792088,98.2145102 C86.6060541,100.070947 82.6958256,101.167035 78.2255384,101.729891 Z M20.1830841,64.4036536 C18.9611377,63.6926776 15.519322,58.6269739 14.1242665,55.4769555 C13.1670752,53.3144036 12.2098838,50.5001238 11.8840314,48.8905532 C11.8127512,48.5646892 11.7211053,48.1005799 11.6600079,47.8537133 C11.5276304,47.21186 11.293424,45.5825401 11.1712294,44.4469535 C11.0184861,42.9361296 10.937023,39.8848577 11.0592176,40.0033537 C11.1101321,40.0626017 11.3137898,40.526711 11.5174475,41.0401937 C12.3422614,43.1533722 12.6171993,43.7952255 13.3300014,45.2764254 C13.7067682,46.0663987 15.2851156,48.7720572 16.0386492,49.9273931 C17.6679111,52.4059343 20.7125942,55.7139475 23.339779,57.8468753 C24.3682506,58.6862219 26.2419017,60.0785499 26.577937,60.2562939 C26.7306803,60.3352912 26.5372054,60.4834112 25.4578194,61.1055151 C23.7572774,62.0831071 22.6473427,62.8632057 21.5475909,63.8407976 C21.0588124,64.2851576 20.641314,64.6406456 20.6209482,64.6406456 C20.6005825,64.6406456 20.4071076,64.5320243 20.1830841,64.4036536 Z M107.501338,64.2357843 C106.228477,63.1693203 104.365009,61.9349871 102.562638,60.9475205 C101.615629,60.4340378 101.58508,60.4044138 101.819287,60.2859178 C102.185871,60.0982992 103.978059,58.7652193 105.108359,57.8468753 C107.735544,55.7139475 110.780227,52.4059343 112.409489,49.9273931 C113.163023,48.7720572 114.74137,46.0663987 115.118137,45.2764254 C115.830939,43.7952255 116.105877,43.1533722 116.930691,41.0401937 C117.134348,40.526711 117.338006,40.0626017 117.388921,40.0033537 C117.511115,39.8848577 117.429652,42.9361296 117.276909,44.4469535 C117.154714,45.5825401 116.920508,47.21186 116.78813,47.8537133 C116.727033,48.1005799 116.635387,48.5646892 116.564107,48.8905532 C116.228072,50.5396224 115.27088,53.3440276 114.28314,55.5559528 C113.61107,57.0470274 112.216014,59.4663206 110.93297,61.3326325 C110.281266,62.3003497 108.662187,64.1864109 108.336334,64.3740296 C107.939202,64.5912723 107.918836,64.5912723 107.501338,64.2357843 Z" id="path-1"></path>
    </defs>
    <g id="Page-1" stroke="none" stroke-width="1" fill="none" fill-rule="evenodd">
        <g id="Token">
            <mask id="mask-2" fill="white">
                <use xlink:href="#path-1"></use>
            </mask>
            <use id="Mask" fill="#D0D0D0" xlink:href="#path-1"></use>
            <circle id="Border" stroke="#B6B6B6" stroke-width="8" mask="url(#mask-2)" cx="64.4509534" cy="64.4509534" r="53.4509534"></circle>
        </g>
    </g>
</svg>