<?xml version="1.0" encoding="UTF-8" standalone="no"?>
<svg width="128px" height="128px" viewBox="0 0 128 128" version="1.1" xmlns="http://www.w3.org/2000/svg" xmlns:xlink="http://www.w3.org/1999/xlink">
    <!-- Generator: Sketch 45.2 (43514) - http://www.bohemiancoding.com/sketch -->
    <title>Token</title>
    <desc>Created with Sketch.</desc>
    <defs>
        <path d="M29.5477345,117.944959 C11.7785581,106.572962 0,86.661996 0,64 C0,28.653776 28.653776,0 64,0 C99.346224,0 128,28.653776 128,64 C128,87.0493571 115.815339,107.252834 97.5358588,118.52059 C99.4278586,114.21531 101.113347,109.17279 102.155322,104.625827 L102.532089,102.966883 L101.493435,101.663427 C100.91301,100.942577 100.393683,100.290849 100.322403,100.221726 C100.220574,100.113105 100.047465,100.290849 99.3957598,101.159819 C98.662592,102.147286 96.7991237,104.487582 96.2492478,104.99119 C96.951867,102.927385 97.6239376,100.043982 97.8785097,97.980177 C97.9599728,97.2790757 98.0821675,96.2619851 98.1534477,95.7386278 C98.2960081,94.5536678 98.214545,91.6998894 97.9701557,89.7644548 C97.8785097,88.9942308 97.766498,88.3227536 97.7359493,88.2635056 C97.6952178,88.1943829 97.135159,88.3326282 96.147419,88.6486175 C94.3654138,89.2114735 92.0742643,89.8335775 91.7585948,89.8335775 C91.6364002,89.8335775 91.1068901,89.6360841 90.5875628,89.3990922 C90.0580527,89.1621002 89.4368966,88.9053589 89.2026902,88.8362362 C88.958301,88.7671135 88.7648261,88.6881162 88.7648261,88.6584922 C88.7648261,88.6288682 89.3757993,88.4412495 90.11915,88.2536309 C90.8523179,88.0660122 92.725969,87.4932816 94.2635849,86.9896736 C95.8012008,86.4860657 97.2064392,86.0417057 97.3693654,85.9923324 C98.3571054,85.735591 101.503617,84.0272738 103.662389,82.5756979 C106.340489,80.7785087 107.623532,79.4355541 108.733467,77.2828769 C109.385172,76.0189196 109.588829,75.179573 109.588829,73.6884984 C109.588829,72.2072985 109.395355,71.3975759 108.723284,70.034872 C107.002376,66.5392402 101.961847,62.9053631 95.6484575,60.6045659 C94.3552309,60.1404566 91.9113381,59.3998566 91.8400579,59.4689793 C91.8196921,59.478854 91.9724354,60.5156939 92.1659103,61.7500272 C92.7361519,65.3740296 93.1841989,69.383144 93.3878567,72.7997785 L93.4387711,73.5897518 L93.1536503,72.5035385 C92.9907241,71.9110585 92.5121284,69.9953733 92.0946301,68.2574321 C91.6669488,66.5194909 91.1068901,64.238443 90.842135,63.1818537 C90.11915,60.2490779 86.6671514,46.87878 86.616237,46.8392814 C86.5958712,46.8195321 85.3841077,46.8491561 83.9279549,46.8886547 C76.1482295,47.145396 53.4200263,47.145396 44.82567,46.8985294 C43.3695172,46.8491561 42.1679365,46.8195321 42.1577536,46.8294067 C42.1068392,46.8392814 39.8055068,56.1313422 39.2148994,58.6691313 C38.8483155,60.2392032 38.5428289,61.5525338 38.5122802,61.5821578 C38.4919144,61.6216565 38.2678909,62.6683711 38.0031359,63.912579 C37.7383808,65.1666616 37.4634429,66.4404935 37.3819798,66.7466082 C37.3005167,67.0527228 37.1681392,67.6550775 37.0866761,68.0796881 C37.0153958,68.5042987 36.6691777,70.1434933 36.3229596,71.7135652 L35.7018035,74.5772184 L35.7629008,73.1552665 C35.8749125,70.331112 36.3840569,65.0580403 36.8728354,61.4932858 C37.005213,60.5453179 37.0968589,59.7454699 37.0764932,59.7158459 C37.005213,59.6467233 34.5307715,60.4564459 32.7589492,61.1279232 C30.9973098,61.7895258 27.9628096,63.2411017 26.6492172,64.060699 C23.2175844,66.1738776 20.8653375,68.5339227 19.9285119,70.8149706 C17.8308373,75.890549 21.2522872,80.9365033 29.4902426,84.9456178 C31.6693803,86.002207 35.3759511,87.3254123 38.8483155,88.2832549 L40.4062971,88.7177402 L39.9175186,88.8954842 C39.6527635,88.9942308 39.0112416,89.2707215 38.5020973,89.5175882 L37.5652717,89.9619481 L35.7527179,89.5472121 C34.7446121,89.3200948 33.3393737,88.9744815 32.6163888,88.7868629 C31.8934038,88.5992442 31.2824306,88.4609989 31.2620649,88.4906229 C31.06859,88.6683669 30.7834692,92.7861026 30.8547494,94.4252972 C30.9871269,97.891305 31.6591974,101.525182 32.7385834,104.69495 C32.9626069,105.346678 33.1255331,105.889784 33.1153502,105.909534 C33.0237043,106.018155 30.4677997,101.781923 29.5106083,99.9254862 L28.9810982,98.9083956 L27.9424438,99.6193715 C27.3722021,100.004484 26.6797658,100.458718 26.4150108,100.626587 L25.9262322,100.942577 L25.9873295,102.02879 C26.298303,107.359319 27.529378,112.841212 29.5477345,117.944959 Z M20.1830841,65.4036536 C20.4071076,65.5320243 20.6005825,65.6406456 20.6209482,65.6406456 C20.641314,65.6406456 21.0588124,65.2851576 21.5475909,64.8407976 C22.6473427,63.8632057 23.7572774,63.0831071 25.4578194,62.1055151 C26.5372054,61.4834112 26.7306803,61.3352912 26.577937,61.2562939 C26.2419017,61.0785499 24.3682506,59.6862219 23.339779,58.8468753 C20.7125942,56.7139475 17.6679111,53.4059343 16.0386492,50.9273931 C15.2851156,49.7720572 13.7067682,47.0663987 13.3300014,46.2764254 C12.6171993,44.7952255 12.3422614,44.1533722 11.5174475,42.0401937 C11.3137898,41.526711 11.1101321,41.0626017 11.0592176,41.0033537 C10.937023,40.8848577 11.0184861,43.9361296 11.1712294,45.4469535 C11.293424,46.5825401 11.5276304,48.21186 11.6600079,48.8537133 C11.7211053,49.1005799 11.8127512,49.5646892 11.8840314,49.8905532 C12.2098838,51.5001238 13.1670752,54.3144036 14.1242665,56.4769555 C15.519322,59.6269739 18.9611377,64.6926776 20.1830841,65.4036536 Z M107.501338,65.2357843 C107.918836,65.5912723 107.939202,65.5912723 108.336334,65.3740296 C108.662187,65.1864109 110.281266,63.3003497 110.93297,62.3326325 C112.216014,60.4663206 113.61107,58.0470274 114.28314,56.5559528 C115.27088,54.3440276 116.228072,51.5396224 116.564107,49.8905532 C116.635387,49.5646892 116.727033,49.1005799 116.78813,48.8537133 C116.920508,48.21186 117.154714,46.5825401 117.276909,45.4469535 C117.429652,43.9361296 117.511115,40.8848577 117.388921,41.0033537 C117.338006,41.0626017 117.134348,41.526711 116.930691,42.0401937 C116.105877,44.1533722 115.830939,44.7952255 115.118137,46.2764254 C114.74137,47.0663987 113.163023,49.7720572 112.409489,50.9273931 C110.780227,53.4059343 107.735544,56.7139475 105.108359,58.8468753 C103.978059,59.7652193 102.185871,61.0982992 101.819287,61.2859178 C101.58508,61.4044138 101.615629,61.4340378 102.562638,61.9475205 C104.365009,62.9349871 106.228477,64.1693203 107.501338,65.2357843 Z" id="path-1"></path>
    </defs>
    <g id="Page-1" stroke="none" stroke-width="1" fill="none" fill-rule="evenodd">
        <g id="Token">
            <mask id="mask-2" fill="white">
                <use xlink:href="#path-1"></use>
            </mask>
            <use id="Mask" fill="#D0D0D0" xlink:href="#path-1"></use>
            <circle id="Border" stroke-opacity="0.231884058" stroke="#000000" stroke-width="4" mask="url(#mask-2)" cx="64.4509534" cy="64.4509534" r="55.4509534"></circle>
        </g>
    </g>
</svg>